<?xml version="1.0" encoding="iso-8859-1"?>
<!-- Generator: Adobe Illustrator 19.0.0, SVG Export Plug-In . SVG Version: 6.00 Build 0)  -->
<svg version="1.1" id="Capa_1" xmlns="http://www.w3.org/2000/svg" xmlns:xlink="http://www.w3.org/1999/xlink" x="0px" y="0px"
	 viewBox="0 0 512 512" style="enable-background:new 0 0 512 512;" xml:space="preserve">
<circle style="fill:#B9EAFF;" cx="256" cy="256" r="256"/>
<path style="fill:#35CCFF;" d="M512,256c0-15.162-1.327-30.012-3.855-44.45L378.696,82.101l-20.774,86.298l-86.298-86.298
	l-20.148,86.924l-86.924-86.924L77,296.5l64.155,64.155L77,390.5l112.854,112.854C210.956,508.983,233.124,512,256,512
	C397.385,512,512,397.385,512,256z"/>
<g>
	<path style="fill:#6EBA3B;" d="M170.276,159.796l-5.724-77.695h-31.248l-5.724,77.695c-0.45,6.105-4.335,11.421-10.015,13.703l0,0
		c-6.077,2.442-10.059,8.333-10.059,14.881V381.5h82.843V188.381c0-6.549-3.982-12.44-10.059-14.881l0,0
		C174.611,171.217,170.726,165.901,170.276,159.796z"/>
	<path style="fill:#6EBA3B;" d="M277.348,159.796l-5.724-77.695h-31.248l-5.724,77.695c-0.45,6.105-4.335,11.421-10.015,13.703l0,0
		c-6.077,2.442-10.059,8.333-10.059,14.881V381.5h82.843V188.381c0-6.549-3.982-12.44-10.059-14.881l0,0
		C281.683,171.217,277.798,165.901,277.348,159.796z"/>
</g>
<g>
	<path style="fill:#488057;" d="M297.422,188.381c0-6.549-3.982-12.44-10.059-14.881l0,0c-5.68-2.282-9.565-7.598-10.015-13.703
		l-5.724-77.695h-15.957V381.5h41.755V188.381z"/>
	<path style="fill:#488057;" d="M384.42,159.796l-5.724-77.695h-31.248l-5.724,77.695c-0.45,6.105-4.335,11.421-10.015,13.703l0,0
		c-6.077,2.442-10.059,8.333-10.059,14.881V381.5h82.843V188.381c0-6.549-3.982-12.44-10.059-14.881l0,0
		C388.755,171.217,384.869,165.901,384.42,159.796z"/>
</g>
<rect x="92" y="250" style="fill:#AE4E32;" width="336" height="78.5"/>
<rect x="255.67" y="250" style="fill:#873623;" width="172.33" height="78.5"/>
<rect x="77" y="218" style="fill:#FF6838;" width="366" height="78.5"/>
<rect x="255.67" y="218" style="fill:#AE4E32;" width="187.33" height="78.5"/>
<rect x="77" y="312" style="fill:#FF6838;" width="366" height="78.5"/>
<rect x="255.67" y="312" style="fill:#AE4E32;" width="187.33" height="78.5"/>
<g>
</g>
<g>
</g>
<g>
</g>
<g>
</g>
<g>
</g>
<g>
</g>
<g>
</g>
<g>
</g>
<g>
</g>
<g>
</g>
<g>
</g>
<g>
</g>
<g>
</g>
<g>
</g>
<g>
</g>
</svg>
