<?xml version="1.0" encoding="iso-8859-1"?>
<!-- Generator: Adobe Illustrator 19.0.0, SVG Export Plug-In . SVG Version: 6.00 Build 0)  -->
<svg version="1.1" id="Capa_1" xmlns="http://www.w3.org/2000/svg" xmlns:xlink="http://www.w3.org/1999/xlink" x="0px" y="0px"
	 viewBox="0 0 512 512" style="enable-background:new 0 0 512 512;" xml:space="preserve">
<circle style="fill:#175D76;" cx="256" cy="256" r="256"/>
<path style="fill:#00263F;" d="M512,256c0-11.756-0.81-23.322-2.344-34.657L403.5,115.187L293.333,125v29.324l-61.991-61.991
	l-97.187,333.113l83.726,83.726C230.319,511.029,243.046,512,256,512C397.385,512,512,397.385,512,256z"/>
<polygon style="fill:#FFFFFF;" points="310.784,176.786 290.784,176.786 290.784,115.187 403.5,115.187 403.5,135.187 
	310.784,135.187 "/>
<polygon style="fill:#FFC000;" points="312.998,276.126 288.57,276.126 277.878,193.664 323.69,193.664 "/>
<rect x="212.05" y="176.79" style="fill:#FFDC00;" width="88.73" height="33.756"/>
<rect x="256" y="176.79" style="fill:#FFC000;" width="44.784" height="33.756"/>
<rect x="145.5" y="92.33" style="fill:#FFB344;" width="85.84" height="283.13"/>
<rect x="188.42" y="92.33" style="fill:#F49B25;" width="42.919" height="283.13"/>
<circle style="fill:#FFFFFF;" cx="300.78" cy="198" r="43.883"/>
<circle style="fill:#E0E0E0;" cx="300.78" cy="198" r="24.717"/>
<rect x="134.16" y="369.51" style="fill:#FFDC00;" width="243.69" height="55.939"/>
<rect x="256" y="369.51" style="fill:#FFC000;" width="121.84" height="55.939"/>
<g>
</g>
<g>
</g>
<g>
</g>
<g>
</g>
<g>
</g>
<g>
</g>
<g>
</g>
<g>
</g>
<g>
</g>
<g>
</g>
<g>
</g>
<g>
</g>
<g>
</g>
<g>
</g>
<g>
</g>
</svg>
