<?xml version="1.0" encoding="iso-8859-1"?>
<!-- Generator: Adobe Illustrator 19.0.0, SVG Export Plug-In . SVG Version: 6.00 Build 0)  -->
<svg version="1.1" id="Capa_1" xmlns="http://www.w3.org/2000/svg" xmlns:xlink="http://www.w3.org/1999/xlink" x="0px" y="0px"
	 viewBox="0 0 512 512" style="enable-background:new 0 0 512 512;" xml:space="preserve">
<circle style="fill:#005C83;" cx="256" cy="256" r="256"/>
<path style="fill:#00263F;" d="M263.659,460.677l-0.13,51.204C401.431,507.897,512,394.865,512,256c0-1.525-0.031-3.044-0.058-4.563
	L340.685,80.18l-51.265,71.675l-54.311-54.311l-51.732,40.435l67.118,67.118l-56.385,24.191l37.16,37.16l-42.114,39.147
	l38.548,38.548l-38.548,42.03L263.659,460.677z"/>
<path style="fill:#FFDC00;" d="M282.403,160.758c32.188,0,58.282-26.094,58.282-58.282V80.18h-22.296
	c-32.188,0-58.282,26.094-58.282,58.282v0.827h-8.214v-0.827c0-32.188-26.094-58.282-58.282-58.282h-22.296v22.296
	c0,32.188,26.094,58.282,58.282,58.282h18.873v38.58c-8.079-22.491-29.587-38.58-54.859-38.58h-22.296v22.296
	c0,32.188,26.094,58.282,58.282,58.282h18.873v38.579c-8.079-22.491-29.587-38.579-54.859-38.579h-22.296v22.296
	c0,32.188,26.094,58.282,58.282,58.282h18.873v38.579c-8.079-22.491-29.587-38.579-54.859-38.579h-22.296v22.296
	c0,32.188,26.094,58.282,58.282,58.282h18.873v109.389c2.502,0.072,5.01,0.119,7.53,0.119s5.028-0.046,7.53-0.119V402.492h18.873
	c32.188,0,58.282-26.094,58.282-58.282v-22.296h-22.296c-25.272,0-46.781,16.089-54.859,38.58v-38.58h18.873
	c32.188,0,58.282-26.094,58.282-58.282v-22.296h-22.296c-25.272,0-46.781,16.088-54.859,38.579v-38.579h18.873
	c32.188,0,58.282-26.094,58.282-58.282v-22.296h-22.296c-25.272,0-46.781,16.089-54.859,38.58v-38.58L282.403,160.758
	L282.403,160.758z"/>
<path style="fill:#FFC000;" d="M282.403,160.758c32.188,0,58.282-26.094,58.282-58.282V80.18h-22.296
	c-32.188,0-58.282,26.094-58.282,58.282v0.827h-4.44v372.707c0.111,0,0.222,0.003,0.333,0.003c2.519,0,5.028-0.046,7.53-0.119
	V402.492h18.873c32.188,0,58.282-26.094,58.282-58.282v-22.296h-22.296c-25.272,0-46.781,16.089-54.859,38.58v-38.58h18.873
	c32.188,0,58.282-26.094,58.282-58.282v-22.296h-22.296c-25.272,0-46.781,16.088-54.859,38.579v-38.579h18.873
	c32.188,0,58.282-26.094,58.282-58.282v-22.296h-22.296c-25.272,0-46.781,16.089-54.859,38.58v-38.58L282.403,160.758
	L282.403,160.758z"/>
<g>
</g>
<g>
</g>
<g>
</g>
<g>
</g>
<g>
</g>
<g>
</g>
<g>
</g>
<g>
</g>
<g>
</g>
<g>
</g>
<g>
</g>
<g>
</g>
<g>
</g>
<g>
</g>
<g>
</g>
</svg>
