<?xml version="1.0" encoding="iso-8859-1"?>
<!-- Generator: Adobe Illustrator 19.0.0, SVG Export Plug-In . SVG Version: 6.00 Build 0)  -->
<svg version="1.1" id="Capa_1" xmlns="http://www.w3.org/2000/svg" xmlns:xlink="http://www.w3.org/1999/xlink" x="0px" y="0px"
	 viewBox="0 0 512 512" style="enable-background:new 0 0 512 512;" xml:space="preserve">
<circle style="fill:#2B9153;" cx="256" cy="256" r="256"/>
<path style="fill:#005D5E;" d="M512,256c0-6.912-0.283-13.758-0.821-20.532L379.596,103.885L113,390.333l120.688,120.688
	C241.043,511.656,248.481,512,256,512C397.385,512,512,397.385,512,256z"/>
<circle style="fill:#FF6838;" cx="256" cy="256" r="196"/>
<path style="fill:#AE4E32;" d="M256,60c-0.111,0-0.222,0.004-0.333,0.004v391.992c0.111,0,0.222,0.004,0.333,0.004
	c108.248,0,196-87.752,196-196S364.248,60,256,60z"/>
<circle style="fill:#FFB344;" cx="256" cy="256" r="157"/>
<path style="fill:#FF9451;" d="M256,99c-0.111,0-0.222,0.004-0.333,0.004v313.992c0.111,0,0.222,0.004,0.333,0.004
	c86.709,0,157-70.291,157-157S342.709,99,256,99z"/>
<path style="fill:#FFCF35;" d="M139,360.678c20.422,22.811,47.41,39.618,78,47.437v-304.23c-30.59,7.819-57.578,24.627-78,47.437
	V360.678z"/>
<path style="fill:#FFB344;" d="M295,103.885v304.23c30.59-7.819,57.578-24.627,78-47.437V151.322
	C352.578,128.512,325.59,111.704,295,103.885z"/>
<circle style="fill:#FF6838;" cx="256" cy="371" r="26.667"/>
<path style="fill:#AE4E32;" d="M256,344.333c-0.112,0-0.222,0.007-0.333,0.009v53.316c0.111,0.001,0.221,0.008,0.333,0.008
	c14.728,0,26.667-11.939,26.667-26.667S270.728,344.333,256,344.333z"/>
<g>
</g>
<g>
</g>
<g>
</g>
<g>
</g>
<g>
</g>
<g>
</g>
<g>
</g>
<g>
</g>
<g>
</g>
<g>
</g>
<g>
</g>
<g>
</g>
<g>
</g>
<g>
</g>
<g>
</g>
</svg>
