<?xml version="1.0" encoding="iso-8859-1"?>
<!-- Generator: Adobe Illustrator 19.0.0, SVG Export Plug-In . SVG Version: 6.00 Build 0)  -->
<svg version="1.1" id="Capa_1" xmlns="http://www.w3.org/2000/svg" xmlns:xlink="http://www.w3.org/1999/xlink" x="0px" y="0px"
	 viewBox="0 0 512.001 512.001" style="enable-background:new 0 0 512.001 512.001;" xml:space="preserve">
<circle style="fill:#733C81;" cx="256" cy="256" r="256"/>
<path style="fill:#4A2859;" d="M510.497,283.763L289.234,62.5l-66.468,32.94l67.524,67.525l-106.009,282.48l66.49,66.49
	c1.74,0.035,3.481,0.066,5.229,0.066C388.003,512,496.656,412.087,510.497,283.763z"/>
<path style="fill:#91CCFE;" d="M312.664,451.5H199.336c-12.02,0-21.764-9.744-21.764-21.764V156.907
	c0-33.948,27.52-61.467,61.467-61.467h33.92c33.948,0,61.467,27.52,61.467,61.467v272.829
	C334.427,441.756,324.684,451.5,312.664,451.5z"/>
<path style="fill:#228CE4;" d="M272.96,95.44h-17.008V451.5h56.711c12.02,0,21.764-9.744,21.764-21.763v-272.83
	C334.427,122.959,306.908,95.44,272.96,95.44z"/>
<rect x="177.57" y="202.88" style="fill:#FFFFFF;" width="156.85" height="141.17"/>
<rect x="255.95" y="202.88" style="fill:#E0E0E0;" width="78.47" height="141.17"/>
<rect x="222.77" y="62.5" style="fill:#FFFFFF;" width="66.47" height="32.939"/>
<rect x="255.95" y="62.5" style="fill:#E0E0E0;" width="33.28" height="32.939"/>
<path style="fill:#228CE4;" d="M220.62,279.667c0-19.514,35.333-59.333,35.333-59.333s35.333,39.819,35.333,59.333
	S275.467,315,255.953,315S220.62,299.181,220.62,279.667z"/>
<path style="fill:#0666A9;" d="M255.953,315c19.514,0,35.333-15.819,35.333-35.333s-35.333-59.333-35.333-59.333V315z"/>
<g>
</g>
<g>
</g>
<g>
</g>
<g>
</g>
<g>
</g>
<g>
</g>
<g>
</g>
<g>
</g>
<g>
</g>
<g>
</g>
<g>
</g>
<g>
</g>
<g>
</g>
<g>
</g>
<g>
</g>
</svg>
