<?xml version="1.0" encoding="iso-8859-1"?>
<!-- Generator: Adobe Illustrator 19.0.0, SVG Export Plug-In . SVG Version: 6.00 Build 0)  -->
<svg version="1.1" id="Capa_1" xmlns="http://www.w3.org/2000/svg" xmlns:xlink="http://www.w3.org/1999/xlink" x="0px" y="0px"
	 viewBox="0 0 512 512" style="enable-background:new 0 0 512 512;" xml:space="preserve">
<circle style="fill:#FFDC00;" cx="256" cy="256" r="256"/>
<path style="fill:#FFC000;" d="M511.871,263.812L354.727,106.669l-8.319,37.406L256,53.667l-95.333,351.809l106.276,106.276
	C400.662,506.126,507.849,397.94,511.871,263.812z"/>
<path style="fill:#60C344;" d="M177,223c0-43.63,79-169.333,79-169.333S335,179.37,335,223s-35.37,79-79,79S177,266.63,177,223z"/>
<path style="fill:#47AB4B;" d="M256,53.667V302c43.63,0,79-35.37,79-79S256,53.667,256,53.667z"/>
<path style="fill:#2B9153;" d="M245.692,258.413c8.092-42.874,109.036-151.744,109.036-151.744s54.315,138.174,46.223,181.048
	s-49.408,71.07-92.282,62.978S237.599,301.286,245.692,258.413z"/>
<path style="fill:#47AB4B;" d="M266.308,258.413c-8.092-42.874-109.036-151.744-109.036-151.744s-54.315,138.174-46.223,181.048
	s49.408,71.07,92.282,62.978S274.401,301.286,266.308,258.413z"/>
<path style="fill:#97CC52;" d="M177,347.167c0-43.63,79-169.333,79-169.333s79,125.703,79,169.333s-35.37,79-79,79
	S177,390.797,177,347.167z"/>
<g>
	<path style="fill:#60C344;" d="M256,177.833v248.333c43.63,0,79-35.369,79-79C335,303.536,256,177.833,256,177.833z"/>
	<path style="fill:#60C344;" d="M217.047,326.237c15.771-40.68,134.868-129.326,134.868-129.326s28.219,145.76,12.448,186.44
		c-15.772,40.68-61.535,60.873-102.215,45.101S201.275,366.918,217.047,326.237z"/>
	<path style="fill:#60C344;" d="M217.047,326.237c-14.954,38.571,2.437,81.692,38.953,99.505v-148.19
		C237.371,295.697,222.036,313.368,217.047,326.237z"/>
</g>
<path style="fill:#47AB4B;" d="M294.953,326.237c-4.989-12.869-20.324-30.54-38.953-48.685v148.19
	C292.516,407.929,309.907,364.808,294.953,326.237z"/>
<path style="fill:#60C344;" d="M294.953,326.237c-15.771-40.68-134.868-129.326-134.868-129.326s-28.219,145.76-12.448,186.44
	c14.892,38.41,56.52,58.538,95.363,47.39V479h26v-61.24C296.418,397.007,308.001,359.892,294.953,326.237z"/>
<path style="fill:#47AB4B;" d="M351.915,196.911c0,0-55.658,41.43-95.915,80.641V479h13v-48.259
	c38.843,11.148,80.471-8.98,95.363-47.39C380.134,342.671,351.915,196.911,351.915,196.911z"/>
<g>
</g>
<g>
</g>
<g>
</g>
<g>
</g>
<g>
</g>
<g>
</g>
<g>
</g>
<g>
</g>
<g>
</g>
<g>
</g>
<g>
</g>
<g>
</g>
<g>
</g>
<g>
</g>
<g>
</g>
</svg>
